<svg width="25" height="25" viewBox="0 0 25 25" fill="none" xmlns="http://www.w3.org/2000/svg">
<path fill-rule="evenodd" clip-rule="evenodd" d="M18.2169 5.3H7.01693C6.13693 5.3 5.41693 6.02 5.41693 6.9V18.1C5.41693 18.98 6.13693 19.7 7.01693 19.7H18.2169C19.0969 19.7 19.8169 18.98 19.8169 18.1V6.9C19.8169 6.02 19.0969 5.3 18.2169 5.3ZM11.5849 15.932C11.2729 16.244 10.7689 16.244 10.4569 15.932L7.58493 13.06C7.43513 12.9105 7.35094 12.7076 7.35094 12.496C7.35094 12.2844 7.43513 12.0815 7.58493 11.932C7.89693 11.62 8.40093 11.62 8.71293 11.932L11.0169 14.236L16.5209 8.732C16.8329 8.42 17.3369 8.42 17.6489 8.732C17.9609 9.044 17.9609 9.548 17.6489 9.86L11.5849 15.932Z" fill="#C3CAD9"/>
</svg>
