<svg width="31" height="31" viewBox="0 0 31 31" fill="none" xmlns="http://www.w3.org/2000/svg">
<rect x="0.616943" y="0.5" width="30" height="30" rx="15" fill="#FF6633"/>
<path d="M14.5623 16.3311L13.2537 16.0234L13.6833 12.3906H17.8386V13.6699H15.0261L14.865 15.0811C14.9431 15.0355 15.075 14.9818 15.2605 14.9199C15.4493 14.8548 15.6576 14.8223 15.8855 14.8223C16.2371 14.8223 16.5479 14.876 16.8181 14.9834C17.0916 15.0876 17.3227 15.2422 17.5115 15.4473C17.7003 15.6491 17.8419 15.8981 17.9363 16.1943C18.0339 16.4906 18.0828 16.8291 18.0828 17.21C18.0828 17.516 18.0323 17.8122 17.9314 18.0986C17.8337 18.3818 17.6824 18.6374 17.4773 18.8652C17.2755 19.0898 17.0199 19.2689 16.7107 19.4023C16.4014 19.5326 16.0352 19.5977 15.6121 19.5977C15.2963 19.5977 14.9887 19.5488 14.6892 19.4512C14.3897 19.3535 14.1195 19.2135 13.8787 19.0312C13.641 18.8457 13.4522 18.6227 13.3123 18.3623C13.1755 18.0986 13.1088 17.804 13.1121 17.4785H14.7673C14.7771 17.651 14.8178 17.8008 14.8894 17.9277C14.961 18.0547 15.057 18.154 15.1775 18.2256C15.3012 18.2939 15.4428 18.3281 15.6023 18.3281C15.7651 18.3281 15.9001 18.2956 16.0076 18.2305C16.115 18.1654 16.1996 18.0758 16.2615 17.9619C16.3233 17.848 16.3673 17.7178 16.3933 17.5713C16.4194 17.4215 16.4324 17.2637 16.4324 17.0977C16.4324 16.9219 16.4128 16.764 16.3738 16.624C16.338 16.484 16.2794 16.3652 16.198 16.2676C16.1166 16.1667 16.0108 16.0902 15.8806 16.0381C15.7537 15.986 15.6007 15.96 15.4216 15.96C15.184 15.96 14.9968 16.0007 14.8601 16.082C14.7234 16.1634 14.6241 16.2464 14.5623 16.3311Z" fill="white"/>
</svg>
