<svg width="31" height="31" viewBox="0 0 31 31" fill="none" xmlns="http://www.w3.org/2000/svg">
<rect x="0.616943" y="0.5" width="30" height="30" rx="15" fill="#3361FF"/>
<path d="M16.8621 12.2881H17.1257V13.582H17.0378C16.7221 13.582 16.4259 13.626 16.1492 13.7139C15.8757 13.8018 15.6348 13.9352 15.4265 14.1143C15.2214 14.29 15.0603 14.513 14.9431 14.7832C14.8292 15.0534 14.7722 15.3708 14.7722 15.7354V16.9805C14.7722 17.2083 14.7917 17.4069 14.8308 17.5762C14.8699 17.7454 14.9285 17.8854 15.0066 17.9961C15.0847 18.1068 15.1807 18.1898 15.2947 18.2451C15.4119 18.3005 15.547 18.3281 15.7 18.3281C15.8269 18.3281 15.9441 18.2988 16.0515 18.2402C16.1589 18.1816 16.2517 18.0986 16.3298 17.9912C16.4112 17.8838 16.4731 17.7585 16.5154 17.6152C16.5577 17.472 16.5789 17.3158 16.5789 17.1465C16.5789 16.9642 16.5561 16.7998 16.5105 16.6533C16.4649 16.5068 16.3998 16.3831 16.3152 16.2822C16.2338 16.1781 16.1345 16.0999 16.0173 16.0479C15.9034 15.9925 15.7781 15.9648 15.6414 15.9648C15.433 15.9648 15.2556 16.012 15.1091 16.1064C14.9659 16.1976 14.8569 16.3148 14.782 16.458C14.7104 16.6012 14.6746 16.7461 14.6746 16.8926L14.2791 16.4922C14.2725 16.2969 14.31 16.0951 14.3914 15.8867C14.4727 15.6784 14.5948 15.4847 14.7576 15.3057C14.9203 15.1266 15.1238 14.9818 15.3679 14.8711C15.6121 14.7604 15.8953 14.7051 16.2175 14.7051C16.5431 14.7051 16.8295 14.7669 17.0769 14.8906C17.3276 15.0143 17.5375 15.1868 17.7068 15.4082C17.8793 15.6296 18.0095 15.8883 18.0974 16.1846C18.1853 16.4808 18.2292 16.8014 18.2292 17.1465C18.2292 17.4948 18.1674 17.8187 18.0437 18.1182C17.9233 18.4144 17.7524 18.6732 17.531 18.8945C17.3097 19.1159 17.0476 19.2884 16.7449 19.4121C16.4421 19.5358 16.1085 19.5977 15.7439 19.5977C15.3695 19.5977 15.0229 19.5342 14.7039 19.4072C14.3881 19.277 14.1114 19.0898 13.8738 18.8457C13.6394 18.5983 13.4555 18.2972 13.322 17.9424C13.1918 17.5876 13.1267 17.1855 13.1267 16.7363V16.1357C13.1267 15.527 13.226 14.985 13.4246 14.5098C13.6264 14.0345 13.8998 13.6325 14.2449 13.3037C14.5932 12.9717 14.9919 12.7194 15.4412 12.5469C15.8904 12.3743 16.364 12.2881 16.8621 12.2881Z" fill="white"/>
</svg>
