<svg width="31" height="31" viewBox="0 0 31 31" fill="none" xmlns="http://www.w3.org/2000/svg">
<path fill-rule="evenodd" clip-rule="evenodd" d="M17.1685 6.5035C12.0785 6.3635 7.90848 10.4435 7.90848 15.5035H6.11848C5.66848 15.5035 5.44848 16.0435 5.76848 16.3535L8.55848 19.1535C8.75848 19.3535 9.06848 19.3535 9.26848 19.1535L12.0585 16.3535C12.3785 16.0435 12.1485 15.5035 11.7085 15.5035H9.90848C9.90848 11.6035 13.0885 8.4535 17.0085 8.5035C20.7285 8.5535 23.8585 11.6835 23.9085 15.4035C23.9585 19.3135 20.8085 22.5035 16.9085 22.5035C15.2985 22.5035 13.8085 21.9535 12.6285 21.0235C12.2285 20.7135 11.6685 20.7435 11.3085 21.1035C10.8885 21.5335 10.9185 22.2335 11.3885 22.6035C12.9085 23.7935 14.8285 24.5035 16.9085 24.5035C21.9585 24.5035 26.0485 20.3335 25.9085 15.2435C25.7785 10.5535 21.8585 6.6335 17.1685 6.5035ZM16.6585 11.5035C16.2485 11.5035 15.9085 11.8435 15.9085 12.2535V15.9335C15.9085 16.2835 16.0985 16.6135 16.3985 16.7935L19.5185 18.6435C19.8785 18.8535 20.3385 18.7335 20.5485 18.3835C20.7585 18.0235 20.6385 17.5635 20.2885 17.3535L17.4085 15.6435V12.2435C17.4085 11.8435 17.0785 11.5035 16.6585 11.5035Z" fill="#C3CAD9"/>
</svg>
