<svg width="51" height="51" viewBox="0 0 51 51" fill="none" xmlns="http://www.w3.org/2000/svg">
<g filter="url(#filter0_d_1_10179)">
<rect x="5.61694" y="3.5" width="40" height="40" rx="20" fill="white"/>
<path fill-rule="evenodd" clip-rule="evenodd" d="M19.0836 24.053H29.5089L24.9543 28.6076C24.5903 28.9716 24.5903 29.569 24.9543 29.933C25.3183 30.297 25.9063 30.297 26.2703 29.933L32.4209 23.7823C32.7849 23.4183 32.7849 22.8303 32.4209 22.4663L26.2796 16.3063C26.1052 16.1315 25.8685 16.0333 25.6216 16.0333C25.3747 16.0333 25.138 16.1315 24.9636 16.3063C24.5996 16.6703 24.5996 17.2583 24.9636 17.6223L29.5089 22.1863H19.0836C18.5703 22.1863 18.1503 22.6063 18.1503 23.1196C18.1503 23.633 18.5703 24.053 19.0836 24.053Z" fill="#C3CAD9"/>
</g>
<defs>
<filter id="filter0_d_1_10179" x="0.616943" y="0.5" width="50" height="50" filterUnits="userSpaceOnUse" color-interpolation-filters="sRGB">
<feFlood flood-opacity="0" result="BackgroundImageFix"/>
<feColorMatrix in="SourceAlpha" type="matrix" values="0 0 0 0 0 0 0 0 0 0 0 0 0 0 0 0 0 0 127 0" result="hardAlpha"/>
<feOffset dy="2"/>
<feGaussianBlur stdDeviation="2.5"/>
<feColorMatrix type="matrix" values="0 0 0 0 0.14902 0 0 0 0 0.2 0 0 0 0 0.301961 0 0 0 0.03 0"/>
<feBlend mode="normal" in2="BackgroundImageFix" result="effect1_dropShadow_1_10179"/>
<feBlend mode="normal" in="SourceGraphic" in2="effect1_dropShadow_1_10179" result="shape"/>
</filter>
</defs>
</svg>
