<svg width="31" height="31" viewBox="0 0 31 31" fill="none" xmlns="http://www.w3.org/2000/svg">
<path fill-rule="evenodd" clip-rule="evenodd" d="M15.6169 5.5C10.0969 5.5 5.61694 9.98 5.61694 15.5C5.61694 21.02 10.0969 25.5 15.6169 25.5C21.1369 25.5 25.6169 21.02 25.6169 15.5C25.6169 9.98 21.1369 5.5 15.6169 5.5ZM19.6169 16.5H16.6169V19.5C16.6169 20.05 16.1669 20.5 15.6169 20.5C15.0669 20.5 14.6169 20.05 14.6169 19.5V16.5H11.6169C11.0669 16.5 10.6169 16.05 10.6169 15.5C10.6169 14.95 11.0669 14.5 11.6169 14.5H14.6169V11.5C14.6169 10.95 15.0669 10.5 15.6169 10.5C16.1669 10.5 16.6169 10.95 16.6169 11.5V14.5H19.6169C20.1669 14.5 20.6169 14.95 20.6169 15.5C20.6169 16.05 20.1669 16.5 19.6169 16.5Z" fill="#C3CAD9"/>
</svg>
