<svg width="31" height="31" viewBox="0 0 31 31" fill="none" xmlns="http://www.w3.org/2000/svg">
<path fill-rule="evenodd" clip-rule="evenodd" d="M9.61694 13.5C8.51694 13.5 7.61694 14.4 7.61694 15.5C7.61694 16.6 8.51694 17.5 9.61694 17.5C10.7169 17.5 11.6169 16.6 11.6169 15.5C11.6169 14.4 10.7169 13.5 9.61694 13.5ZM21.6169 13.5C20.5169 13.5 19.6169 14.4 19.6169 15.5C19.6169 16.6 20.5169 17.5 21.6169 17.5C22.7169 17.5 23.6169 16.6 23.6169 15.5C23.6169 14.4 22.7169 13.5 21.6169 13.5ZM15.6169 13.5C14.5169 13.5 13.6169 14.4 13.6169 15.5C13.6169 16.6 14.5169 17.5 15.6169 17.5C16.7169 17.5 17.6169 16.6 17.6169 15.5C17.6169 14.4 16.7169 13.5 15.6169 13.5Z" fill="#C3CAD9"/>
</svg>
