<svg width="61" height="61" viewBox="0 0 61 61" fill="none" xmlns="http://www.w3.org/2000/svg">
<g filter="url(#filter0_d_1_10199)">
<rect x="5.61694" y="3.5" width="50" height="50" rx="25" fill="white"/>
<path fill-rule="evenodd" clip-rule="evenodd" d="M22.6169 24.5H26.6169V20.5H22.6169V24.5ZM28.6169 36.5H32.6169V32.5H28.6169V36.5ZM22.6169 36.5H26.6169V32.5H22.6169V36.5ZM22.6169 30.5H26.6169V26.5H22.6169V30.5ZM28.6169 30.5H32.6169V26.5H28.6169V30.5ZM34.6169 20.5V24.5H38.6169V20.5H34.6169ZM28.6169 24.5H32.6169V20.5H28.6169V24.5ZM34.6169 30.5H38.6169V26.5H34.6169V30.5ZM34.6169 36.5H38.6169V32.5H34.6169V36.5Z" fill="#C3CAD9"/>
</g>
<defs>
<filter id="filter0_d_1_10199" x="0.616943" y="0.5" width="60" height="60" filterUnits="userSpaceOnUse" color-interpolation-filters="sRGB">
<feFlood flood-opacity="0" result="BackgroundImageFix"/>
<feColorMatrix in="SourceAlpha" type="matrix" values="0 0 0 0 0 0 0 0 0 0 0 0 0 0 0 0 0 0 127 0" result="hardAlpha"/>
<feOffset dy="2"/>
<feGaussianBlur stdDeviation="2.5"/>
<feColorMatrix type="matrix" values="0 0 0 0 0.14902 0 0 0 0 0.2 0 0 0 0 0.301961 0 0 0 0.03 0"/>
<feBlend mode="normal" in2="BackgroundImageFix" result="effect1_dropShadow_1_10199"/>
<feBlend mode="normal" in="SourceGraphic" in2="effect1_dropShadow_1_10199" result="shape"/>
</filter>
</defs>
</svg>
