<svg width="29" height="29" viewBox="0 0 29 29" fill="none" xmlns="http://www.w3.org/2000/svg">
<path fill-rule="evenodd" clip-rule="evenodd" d="M17.8842 16.3673H17.1468L16.8855 16.1153C18.0055 14.8086 18.5842 13.0259 18.2668 11.1313C17.8282 8.53659 15.6628 6.46459 13.0495 6.14726C9.1015 5.66192 5.77884 8.98459 6.26417 12.9326C6.5815 15.5459 8.6535 17.7113 11.2482 18.1499C13.1428 18.4673 14.9255 17.8886 16.2322 16.7686L16.4842 17.0299V17.7673L20.4508 21.7339C20.8335 22.1166 21.4588 22.1166 21.8415 21.7339C22.2242 21.3513 22.2242 20.7259 21.8415 20.3433L17.8842 16.3673ZM12.2842 16.3673C9.96017 16.3673 8.08417 14.4913 8.08417 12.1673C8.08417 9.84326 9.96017 7.96726 12.2842 7.96726C14.6082 7.96726 16.4842 9.84326 16.4842 12.1673C16.4842 14.4913 14.6082 16.3673 12.2842 16.3673Z" fill="#C3CAD9"/>
</svg>
