<svg width="57" height="77" viewBox="0 0 57 77" fill="none" xmlns="http://www.w3.org/2000/svg">
<path d="M4.01929 61.9688L6.21069 68.1562L8.39038 61.9688H10.699V70.5H8.9353V68.168L9.11108 64.1426L6.80835 70.5H5.60132L3.30444 64.1484L3.48022 68.168V70.5H1.72241V61.9688H4.01929ZM15.0408 70.6172C14.1111 70.6172 13.3533 70.332 12.7673 69.7617C12.1853 69.1914 11.8943 68.4316 11.8943 67.4824V67.3184C11.8943 66.6816 12.0173 66.1133 12.2634 65.6133C12.5095 65.1094 12.8572 64.7227 13.3064 64.4531C13.7595 64.1797 14.2751 64.043 14.8533 64.043C15.7205 64.043 16.4021 64.3164 16.8982 64.8633C17.3982 65.4102 17.6482 66.1855 17.6482 67.1895V67.8809H13.6111C13.6658 68.2949 13.8298 68.627 14.1033 68.877C14.3806 69.127 14.7302 69.252 15.1521 69.252C15.8044 69.252 16.3142 69.0156 16.6814 68.543L17.5134 69.4746C17.2595 69.834 16.9158 70.1152 16.4822 70.3184C16.0486 70.5176 15.5681 70.6172 15.0408 70.6172ZM14.8474 65.4141C14.5115 65.4141 14.238 65.5273 14.0271 65.7539C13.8201 65.9805 13.6873 66.3047 13.6287 66.7266H15.9841V66.5918C15.9763 66.2168 15.8748 65.9277 15.6794 65.7246C15.4841 65.5176 15.2068 65.4141 14.8474 65.4141ZM22.0486 68.748C22.0486 68.541 21.9451 68.3789 21.738 68.2617C21.5349 68.1406 21.2068 68.0332 20.7537 67.9395C19.2458 67.623 18.4919 66.9824 18.4919 66.0176C18.4919 65.4551 18.7244 64.9863 19.1892 64.6113C19.658 64.2324 20.2693 64.043 21.0232 64.043C21.8279 64.043 22.4705 64.2324 22.9509 64.6113C23.4353 64.9902 23.6775 65.4824 23.6775 66.0879H21.9841C21.9841 65.8457 21.906 65.6465 21.7498 65.4902C21.5935 65.3301 21.3494 65.25 21.0173 65.25C20.7322 65.25 20.5115 65.3145 20.3552 65.4434C20.199 65.5723 20.1208 65.7363 20.1208 65.9355C20.1208 66.123 20.2087 66.2754 20.3845 66.3926C20.5642 66.5059 20.865 66.6055 21.2869 66.6914C21.7087 66.7734 22.0642 66.8672 22.3533 66.9727C23.2478 67.3008 23.6951 67.8691 23.6951 68.6777C23.6951 69.2559 23.447 69.7246 22.9509 70.084C22.4548 70.4395 21.8142 70.6172 21.0291 70.6172C20.4978 70.6172 20.0251 70.5234 19.6111 70.3359C19.2009 70.1445 18.8787 69.8848 18.6443 69.5566C18.4099 69.2246 18.2927 68.8672 18.2927 68.4844H19.8982C19.9138 68.7852 20.0251 69.0156 20.2322 69.1758C20.4392 69.3359 20.7166 69.416 21.0642 69.416C21.3884 69.416 21.6326 69.3555 21.7966 69.2344C21.9646 69.1094 22.0486 68.9473 22.0486 68.748ZM28.2244 68.748C28.2244 68.541 28.1208 68.3789 27.9138 68.2617C27.7107 68.1406 27.3826 68.0332 26.9294 67.9395C25.4216 67.623 24.6677 66.9824 24.6677 66.0176C24.6677 65.4551 24.9001 64.9863 25.365 64.6113C25.8337 64.2324 26.4451 64.043 27.199 64.043C28.0037 64.043 28.6462 64.2324 29.1267 64.6113C29.6111 64.9902 29.8533 65.4824 29.8533 66.0879H28.1599C28.1599 65.8457 28.0818 65.6465 27.9255 65.4902C27.7693 65.3301 27.5251 65.25 27.1931 65.25C26.908 65.25 26.6873 65.3145 26.531 65.4434C26.3748 65.5723 26.2966 65.7363 26.2966 65.9355C26.2966 66.123 26.3845 66.2754 26.5603 66.3926C26.74 66.5059 27.0408 66.6055 27.4626 66.6914C27.8845 66.7734 28.24 66.8672 28.5291 66.9727C29.4236 67.3008 29.8708 67.8691 29.8708 68.6777C29.8708 69.2559 29.6228 69.7246 29.1267 70.084C28.6306 70.4395 27.99 70.6172 27.2048 70.6172C26.6736 70.6172 26.2009 70.5234 25.7869 70.3359C25.3767 70.1445 25.0544 69.8848 24.8201 69.5566C24.5857 69.2246 24.4685 68.8672 24.4685 68.4844H26.074C26.0896 68.7852 26.2009 69.0156 26.408 69.1758C26.615 69.3359 26.8923 69.416 27.24 69.416C27.5642 69.416 27.8083 69.3555 27.9724 69.2344C28.1404 69.1094 28.2244 68.9473 28.2244 68.748ZM34.6404 70.5C34.5623 70.3477 34.5056 70.1582 34.4705 69.9316C34.0603 70.3887 33.5271 70.6172 32.8708 70.6172C32.2498 70.6172 31.7341 70.4375 31.324 70.0781C30.9177 69.7188 30.7146 69.2656 30.7146 68.7188C30.7146 68.0469 30.9626 67.5312 31.4587 67.1719C31.9587 66.8125 32.6794 66.6309 33.6208 66.627H34.4001V66.2637C34.4001 65.9707 34.324 65.7363 34.1716 65.5605C34.0232 65.3848 33.7869 65.2969 33.4626 65.2969C33.1775 65.2969 32.9529 65.3652 32.7888 65.502C32.6287 65.6387 32.5486 65.8262 32.5486 66.0645H30.8552C30.8552 65.6973 30.9685 65.3574 31.1951 65.0449C31.4216 64.7324 31.7419 64.4883 32.156 64.3125C32.5701 64.1328 33.0349 64.043 33.5505 64.043C34.3318 64.043 34.9509 64.2402 35.408 64.6348C35.8689 65.0254 36.0994 65.5762 36.0994 66.2871V69.0352C36.1033 69.6367 36.1873 70.0918 36.3513 70.4004V70.5H34.6404ZM33.24 69.3223C33.49 69.3223 33.7205 69.2676 33.9314 69.1582C34.1423 69.0449 34.2986 68.8945 34.4001 68.707V67.6172H33.7673C32.9197 67.6172 32.4685 67.9102 32.4138 68.4961L32.408 68.5957C32.408 68.8066 32.4822 68.9805 32.6306 69.1172C32.7791 69.2539 32.9822 69.3223 33.24 69.3223ZM37.1541 67.2832C37.1541 66.3105 37.3845 65.5273 37.8455 64.9336C38.3103 64.3398 38.9353 64.043 39.7205 64.043C40.4158 64.043 40.9568 64.2812 41.3435 64.7578L41.4138 64.1602H42.949V70.2891C42.949 70.8438 42.822 71.3262 42.5681 71.7363C42.3181 72.1465 41.9646 72.459 41.5076 72.6738C41.0505 72.8887 40.5154 72.9961 39.9021 72.9961C39.4373 72.9961 38.9841 72.9023 38.5427 72.7148C38.1013 72.5312 37.7673 72.293 37.5408 72L38.2908 70.9688C38.7126 71.4414 39.2244 71.6777 39.8259 71.6777C40.2751 71.6777 40.6248 71.5566 40.8748 71.3145C41.1248 71.0762 41.2498 70.7363 41.2498 70.2949V69.9551C40.8591 70.3965 40.3455 70.6172 39.7087 70.6172C38.947 70.6172 38.3298 70.3203 37.8572 69.7266C37.3884 69.1289 37.1541 68.3379 37.1541 67.3535V67.2832ZM38.8474 67.4062C38.8474 67.9805 38.9626 68.4316 39.1931 68.7598C39.4236 69.084 39.74 69.2461 40.1423 69.2461C40.658 69.2461 41.0271 69.0527 41.2498 68.666V66C41.0232 65.6133 40.658 65.4199 40.1541 65.4199C39.7478 65.4199 39.4275 65.5859 39.1931 65.918C38.9626 66.25 38.8474 66.7461 38.8474 67.4062ZM47.1736 70.6172C46.2439 70.6172 45.4861 70.332 44.9001 69.7617C44.3181 69.1914 44.0271 68.4316 44.0271 67.4824V67.3184C44.0271 66.6816 44.1501 66.1133 44.3962 65.6133C44.6423 65.1094 44.99 64.7227 45.4392 64.4531C45.8923 64.1797 46.408 64.043 46.9861 64.043C47.8533 64.043 48.5349 64.3164 49.031 64.8633C49.531 65.4102 49.781 66.1855 49.781 67.1895V67.8809H45.7439C45.7986 68.2949 45.9626 68.627 46.2361 68.877C46.5134 69.127 46.863 69.252 47.2849 69.252C47.9373 69.252 48.447 69.0156 48.8142 68.543L49.6462 69.4746C49.3923 69.834 49.0486 70.1152 48.615 70.3184C48.1814 70.5176 47.7009 70.6172 47.1736 70.6172ZM46.9802 65.4141C46.6443 65.4141 46.3708 65.5273 46.1599 65.7539C45.9529 65.9805 45.8201 66.3047 45.7615 66.7266H48.1169V66.5918C48.1091 66.2168 48.0076 65.9277 47.8123 65.7246C47.6169 65.5176 47.3396 65.4141 46.9802 65.4141ZM54.1814 68.748C54.1814 68.541 54.0779 68.3789 53.8708 68.2617C53.6677 68.1406 53.3396 68.0332 52.8865 67.9395C51.3787 67.623 50.6248 66.9824 50.6248 66.0176C50.6248 65.4551 50.8572 64.9863 51.322 64.6113C51.7908 64.2324 52.4021 64.043 53.156 64.043C53.9607 64.043 54.6033 64.2324 55.0837 64.6113C55.5681 64.9902 55.8103 65.4824 55.8103 66.0879H54.1169C54.1169 65.8457 54.0388 65.6465 53.8826 65.4902C53.7263 65.3301 53.4822 65.25 53.1501 65.25C52.865 65.25 52.6443 65.3145 52.488 65.4434C52.3318 65.5723 52.2537 65.7363 52.2537 65.9355C52.2537 66.123 52.3416 66.2754 52.5173 66.3926C52.697 66.5059 52.9978 66.6055 53.4197 66.6914C53.8416 66.7734 54.197 66.8672 54.4861 66.9727C55.3806 67.3008 55.8279 67.8691 55.8279 68.6777C55.8279 69.2559 55.5798 69.7246 55.0837 70.084C54.5876 70.4395 53.947 70.6172 53.1619 70.6172C52.6306 70.6172 52.158 70.5234 51.7439 70.3359C51.3337 70.1445 51.0115 69.8848 50.7771 69.5566C50.5427 69.2246 50.4255 68.8672 50.4255 68.4844H52.031C52.0466 68.7852 52.158 69.0156 52.365 69.1758C52.572 69.3359 52.8494 69.416 53.197 69.416C53.5212 69.416 53.7654 69.3555 53.9294 69.2344C54.0974 69.1094 54.1814 68.9473 54.1814 68.748Z" fill="#6B7A99"/>
<rect x="8.61694" y="1.5" width="40" height="40" rx="20" fill="#3361FF"/>
<path d="M31.2169 23.9766V25.5H25.2638V24.2109L28.006 21.3281C28.2482 21.0508 28.4435 20.8027 28.5919 20.584C28.7404 20.3613 28.8478 20.1602 28.9142 19.9805C28.9845 19.8008 29.0197 19.6387 29.0197 19.4941C29.0197 19.248 28.9825 19.043 28.9083 18.8789C28.838 18.7109 28.7325 18.584 28.5919 18.498C28.4552 18.4121 28.2853 18.3691 28.0822 18.3691C27.879 18.3691 27.7013 18.4277 27.549 18.5449C27.3966 18.6621 27.2775 18.8223 27.1915 19.0254C27.1095 19.2285 27.0685 19.457 27.0685 19.7109H25.088C25.088 19.1875 25.215 18.709 25.4689 18.2754C25.7267 17.8418 26.0841 17.4961 26.5411 17.2383C26.9982 16.9766 27.5275 16.8457 28.129 16.8457C28.7579 16.8457 29.2853 16.9434 29.7111 17.1387C30.1368 17.334 30.4572 17.6172 30.672 17.9883C30.8907 18.3555 31.0001 18.7988 31.0001 19.3184C31.0001 19.6152 30.9532 19.9004 30.8595 20.1738C30.7657 20.4473 30.631 20.7188 30.4552 20.9883C30.2794 21.2539 30.0646 21.5273 29.8107 21.8086C29.5607 22.0898 29.2755 22.3887 28.9552 22.7051L27.8536 23.9766H31.2169Z" fill="white"/>
<rect x="8.61694" y="1.5" width="40" height="40" rx="20" stroke="#3361FF" stroke-width="2"/>
</svg>
