<svg width="43" height="43" viewBox="0 0 43 43" fill="none" xmlns="http://www.w3.org/2000/svg">
<g filter="url(#filter0_d_1_10223)">
<rect x="6.61694" y="4.5" width="30" height="30" rx="15" fill="white"/>
<rect x="6.61694" y="4.5" width="30" height="30" rx="15" stroke="#F5F6F7" stroke-width="2"/>
</g>
<path d="M22.3982 20.751C22.0434 21.07 21.6462 21.2295 21.2068 21.2295C20.5623 21.2295 20.0512 21.0114 19.6736 20.5752C19.296 20.139 19.1072 19.5563 19.1072 18.8271C19.1072 18.3714 19.213 17.9482 19.4246 17.5576C19.6361 17.167 19.9324 16.8577 20.3132 16.6299C20.6973 16.402 21.1205 16.2881 21.5828 16.2881C22.0515 16.2881 22.4747 16.4069 22.8523 16.6445C23.2332 16.8789 23.5294 17.2126 23.741 17.6455C23.9526 18.0752 24.0616 18.5716 24.0681 19.1348V19.7646C24.0681 20.5492 23.9135 21.2295 23.6042 21.8057C23.2983 22.3818 22.8604 22.8245 22.2908 23.1338C21.7211 23.443 21.057 23.5977 20.2986 23.5977H20.196V22.2793L20.5085 22.2744C21.6414 22.2191 22.2712 21.7113 22.3982 20.751ZM21.6511 20.043C22.0092 20.043 22.2664 19.8883 22.4226 19.5791V18.8955C22.4226 18.4398 22.3461 18.1029 22.1931 17.8848C22.0401 17.6667 21.8334 17.5576 21.573 17.5576C21.3419 17.5576 21.1482 17.6813 20.9919 17.9287C20.8357 18.1761 20.7576 18.4756 20.7576 18.8271C20.7576 19.1982 20.8373 19.4945 20.9968 19.7158C21.1563 19.9339 21.3744 20.043 21.6511 20.043Z" fill="#7D8FB3"/>
<defs>
<filter id="filter0_d_1_10223" x="0.616943" y="0.5" width="42" height="42" filterUnits="userSpaceOnUse" color-interpolation-filters="sRGB">
<feFlood flood-opacity="0" result="BackgroundImageFix"/>
<feColorMatrix in="SourceAlpha" type="matrix" values="0 0 0 0 0 0 0 0 0 0 0 0 0 0 0 0 0 0 127 0" result="hardAlpha"/>
<feOffset dy="2"/>
<feGaussianBlur stdDeviation="2.5"/>
<feColorMatrix type="matrix" values="0 0 0 0 0.14902 0 0 0 0 0.2 0 0 0 0 0.301961 0 0 0 0.03 0"/>
<feBlend mode="normal" in2="BackgroundImageFix" result="effect1_dropShadow_1_10223"/>
<feBlend mode="normal" in="SourceGraphic" in2="effect1_dropShadow_1_10223" result="shape"/>
</filter>
</defs>
</svg>
