<svg width="43" height="43" viewBox="0 0 43 43" fill="none" xmlns="http://www.w3.org/2000/svg">
<rect x="1.61694" y="1.5" width="40" height="40" rx="20" fill="#3361FF"/>
<path d="M24.2169 23.9766V25.5H18.2638V24.2109L21.006 21.3281C21.2482 21.0508 21.4435 20.8027 21.5919 20.584C21.7404 20.3613 21.8478 20.1602 21.9142 19.9805C21.9845 19.8008 22.0197 19.6387 22.0197 19.4941C22.0197 19.248 21.9825 19.043 21.9083 18.8789C21.838 18.7109 21.7325 18.584 21.5919 18.498C21.4552 18.4121 21.2853 18.3691 21.0822 18.3691C20.879 18.3691 20.7013 18.4277 20.549 18.5449C20.3966 18.6621 20.2775 18.8223 20.1915 19.0254C20.1095 19.2285 20.0685 19.457 20.0685 19.7109H18.088C18.088 19.1875 18.215 18.709 18.4689 18.2754C18.7267 17.8418 19.0841 17.4961 19.5411 17.2383C19.9982 16.9766 20.5275 16.8457 21.129 16.8457C21.7579 16.8457 22.2853 16.9434 22.7111 17.1387C23.1368 17.334 23.4572 17.6172 23.672 17.9883C23.8907 18.3555 24.0001 18.7988 24.0001 19.3184C24.0001 19.6152 23.9532 19.9004 23.8595 20.1738C23.7657 20.4473 23.631 20.7188 23.4552 20.9883C23.2794 21.2539 23.0646 21.5273 22.8107 21.8086C22.5607 22.0898 22.2755 22.3887 21.9552 22.7051L20.8536 23.9766H24.2169Z" fill="white"/>
<rect x="1.61694" y="1.5" width="40" height="40" rx="20" stroke="#3361FF" stroke-width="2"/>
</svg>
