<svg width="31" height="31" viewBox="0 0 31 31" fill="none" xmlns="http://www.w3.org/2000/svg">
<path fill-rule="evenodd" clip-rule="evenodd" d="M19.6169 16.5H16.6169C16.0669 16.5 15.6169 16.95 15.6169 17.5V20.5C15.6169 21.05 16.0669 21.5 16.6169 21.5H19.6169C20.1669 21.5 20.6169 21.05 20.6169 20.5V17.5C20.6169 16.95 20.1669 16.5 19.6169 16.5ZM19.6169 6.5V7.5H11.6169V6.5C11.6169 5.95 11.1669 5.5 10.6169 5.5C10.0669 5.5 9.61694 5.95 9.61694 6.5V7.5H8.61694C7.50694 7.5 6.62694 8.4 6.62694 9.5L6.61694 23.5C6.61694 24.6 7.50694 25.5 8.61694 25.5H22.6169C23.7169 25.5 24.6169 24.6 24.6169 23.5V9.5C24.6169 8.4 23.7169 7.5 22.6169 7.5H21.6169V6.5C21.6169 5.95 21.1669 5.5 20.6169 5.5C20.0669 5.5 19.6169 5.95 19.6169 6.5ZM21.6169 23.5H9.61694C9.06694 23.5 8.61694 23.05 8.61694 22.5V12.5H22.6169V22.5C22.6169 23.05 22.1669 23.5 21.6169 23.5Z" fill="#29CC39"/>
</svg>
