<svg width="43" height="77" viewBox="0 0 43 77" fill="none" xmlns="http://www.w3.org/2000/svg">
<path d="M13.9607 67.6582C13.8943 68.5762 13.5544 69.2988 12.9412 69.8262C12.3318 70.3535 11.5271 70.6172 10.5271 70.6172C9.43335 70.6172 8.57202 70.25 7.94312 69.5156C7.31812 68.7773 7.00562 67.7656 7.00562 66.4805V65.959C7.00562 65.1387 7.15015 64.416 7.43921 63.791C7.72827 63.166 8.14038 62.6875 8.67554 62.3555C9.2146 62.0195 9.8396 61.8516 10.5505 61.8516C11.5349 61.8516 12.3279 62.1152 12.9294 62.6426C13.531 63.1699 13.8787 63.9102 13.9724 64.8633H12.2146C12.1716 64.3125 12.0173 63.9141 11.7517 63.668C11.49 63.418 11.0896 63.293 10.5505 63.293C9.9646 63.293 9.52515 63.5039 9.23218 63.9258C8.94312 64.3438 8.79468 64.9941 8.78687 65.877V66.5215C8.78687 67.4434 8.92554 68.1172 9.20288 68.543C9.48413 68.9688 9.92554 69.1816 10.5271 69.1816C11.0701 69.1816 11.4744 69.0586 11.74 68.8125C12.0095 68.5625 12.1638 68.1777 12.2029 67.6582H13.9607ZM16.656 64.8516C17.1052 64.3125 17.6697 64.043 18.3494 64.043C19.7244 64.043 20.4216 64.8418 20.4412 66.4395V70.5H18.7478V66.4863C18.7478 66.123 18.6697 65.8555 18.5134 65.6836C18.3572 65.5078 18.0974 65.4199 17.7341 65.4199C17.238 65.4199 16.8787 65.6113 16.656 65.9941V70.5H14.9626V61.5H16.656V64.8516ZM25.3923 70.5C25.3142 70.3477 25.2576 70.1582 25.2224 69.9316C24.8123 70.3887 24.2791 70.6172 23.6228 70.6172C23.0017 70.6172 22.4861 70.4375 22.0759 70.0781C21.6697 69.7188 21.4666 69.2656 21.4666 68.7188C21.4666 68.0469 21.7146 67.5312 22.2107 67.1719C22.7107 66.8125 23.4314 66.6309 24.3728 66.627H25.1521V66.2637C25.1521 65.9707 25.0759 65.7363 24.9236 65.5605C24.7751 65.3848 24.5388 65.2969 24.2146 65.2969C23.9294 65.2969 23.7048 65.3652 23.5408 65.502C23.3806 65.6387 23.3005 65.8262 23.3005 66.0645H21.6072C21.6072 65.6973 21.7205 65.3574 21.947 65.0449C22.1736 64.7324 22.4939 64.4883 22.908 64.3125C23.322 64.1328 23.7869 64.043 24.3025 64.043C25.0837 64.043 25.7029 64.2402 26.1599 64.6348C26.6208 65.0254 26.8513 65.5762 26.8513 66.2871V69.0352C26.8552 69.6367 26.9392 70.0918 27.1033 70.4004V70.5H25.3923ZM23.9919 69.3223C24.2419 69.3223 24.4724 69.2676 24.6833 69.1582C24.8943 69.0449 25.0505 68.8945 25.1521 68.707V67.6172H24.5193C23.6716 67.6172 23.2205 67.9102 23.1658 68.4961L23.1599 68.5957C23.1599 68.8066 23.2341 68.9805 23.3826 69.1172C23.531 69.2539 23.7341 69.3223 23.9919 69.3223ZM30.1794 62.6016V64.1602H31.2634V65.4023H30.1794V68.5664C30.1794 68.8008 30.2244 68.9688 30.3142 69.0703C30.4041 69.1719 30.5759 69.2227 30.8298 69.2227C31.0173 69.2227 31.1833 69.209 31.3279 69.1816V70.4648C30.9958 70.5664 30.6541 70.6172 30.3025 70.6172C29.115 70.6172 28.5095 70.0176 28.4861 68.8184V65.4023H27.5603V64.1602H28.4861V62.6016H30.1794ZM35.6404 68.748C35.6404 68.541 35.5369 68.3789 35.3298 68.2617C35.1267 68.1406 34.7986 68.0332 34.3455 67.9395C32.8376 67.623 32.0837 66.9824 32.0837 66.0176C32.0837 65.4551 32.3162 64.9863 32.781 64.6113C33.2498 64.2324 33.8611 64.043 34.615 64.043C35.4197 64.043 36.0623 64.2324 36.5427 64.6113C37.0271 64.9902 37.2693 65.4824 37.2693 66.0879H35.5759C35.5759 65.8457 35.4978 65.6465 35.3416 65.4902C35.1853 65.3301 34.9412 65.25 34.6091 65.25C34.324 65.25 34.1033 65.3145 33.947 65.4434C33.7908 65.5723 33.7126 65.7363 33.7126 65.9355C33.7126 66.123 33.8005 66.2754 33.9763 66.3926C34.156 66.5059 34.4568 66.6055 34.8787 66.6914C35.3005 66.7734 35.656 66.8672 35.9451 66.9727C36.8396 67.3008 37.2869 67.8691 37.2869 68.6777C37.2869 69.2559 37.0388 69.7246 36.5427 70.084C36.0466 70.4395 35.406 70.6172 34.6208 70.6172C34.0896 70.6172 33.6169 70.5234 33.2029 70.3359C32.7927 70.1445 32.4705 69.8848 32.2361 69.5566C32.0017 69.2246 31.8845 68.8672 31.8845 68.4844H33.49C33.5056 68.7852 33.6169 69.0156 33.824 69.1758C34.031 69.3359 34.3083 69.416 34.656 69.416C34.9802 69.416 35.2244 69.3555 35.3884 69.2344C35.5564 69.1094 35.6404 68.9473 35.6404 68.748Z" fill="#6B7A99"/>
<rect x="1.61694" y="1.5" width="40" height="40" rx="20" fill="#FF6633"/>
<path d="M22.6349 16.9688V25.5H20.6603V19.1953L18.715 19.7637V18.2637L22.4532 16.9688H22.6349Z" fill="white"/>
<rect x="1.61694" y="1.5" width="40" height="40" rx="20" stroke="#FF6633" stroke-width="2"/>
</svg>
