<svg width="31" height="31" viewBox="0 0 31 31" fill="none" xmlns="http://www.w3.org/2000/svg">
<rect x="0.616943" y="0.5" width="30" height="30" rx="15" fill="white" fill-opacity="0.2"/>
<path d="M13.9119 18.0352H14.0291C14.4197 18.0352 14.7712 17.9922 15.0837 17.9062C15.3962 17.8203 15.6638 17.6875 15.8865 17.5078C16.1091 17.3242 16.2791 17.0879 16.3962 16.7988C16.5173 16.5059 16.5779 16.1523 16.5779 15.7383V13.9746C16.5779 13.7012 16.5544 13.4648 16.5076 13.2656C16.4607 13.0625 16.3923 12.8945 16.3025 12.7617C16.2126 12.6289 16.1052 12.5312 15.9802 12.4688C15.8552 12.4023 15.7146 12.3691 15.5583 12.3691C15.4021 12.3691 15.2634 12.4141 15.1423 12.5039C15.0251 12.5898 14.9236 12.707 14.8376 12.8555C14.7556 13 14.6931 13.1641 14.6501 13.3477C14.6072 13.5273 14.5857 13.709 14.5857 13.8926C14.5857 14.0996 14.6072 14.293 14.6501 14.4727C14.697 14.6484 14.7634 14.8027 14.8494 14.9355C14.9392 15.0645 15.0505 15.166 15.1833 15.2402C15.3201 15.3145 15.4783 15.3516 15.658 15.3516C15.8376 15.3516 15.9919 15.3203 16.1208 15.2578C16.2537 15.1914 16.363 15.1055 16.449 15C16.5349 14.8906 16.5974 14.7734 16.6365 14.6484C16.6794 14.5234 16.699 14.4004 16.6951 14.2793L17.2693 14.7305C17.2693 14.9805 17.2126 15.2266 17.0994 15.4688C16.9861 15.7109 16.8298 15.9316 16.6306 16.1309C16.4314 16.3262 16.2009 16.4824 15.9392 16.5996C15.6814 16.7168 15.408 16.7754 15.1189 16.7754C14.7322 16.7754 14.3826 16.707 14.0701 16.5703C13.7615 16.4336 13.4978 16.2383 13.2791 15.9844C13.0603 15.7305 12.8923 15.4277 12.7751 15.0762C12.6619 14.7207 12.6052 14.3262 12.6052 13.8926C12.6052 13.4746 12.6775 13.082 12.822 12.7148C12.9666 12.3477 13.1716 12.0254 13.4373 11.748C13.7029 11.4668 14.0173 11.2461 14.3806 11.0859C14.7439 10.9258 15.1423 10.8457 15.5759 10.8457C15.9861 10.8457 16.3708 10.9238 16.7302 11.0801C17.0896 11.2324 17.406 11.457 17.6794 11.7539C17.9529 12.0508 18.1677 12.416 18.324 12.8496C18.4802 13.2832 18.5583 13.7793 18.5583 14.3379V15.0176C18.5583 15.623 18.4841 16.1699 18.3357 16.6582C18.1873 17.1465 17.9763 17.5762 17.7029 17.9473C17.4294 18.3145 17.1052 18.623 16.7302 18.873C16.3591 19.1191 15.947 19.3047 15.4939 19.4297C15.0447 19.5547 14.5681 19.6172 14.0642 19.6172H13.9119V18.0352Z" fill="white"/>
</svg>
