<svg width="26" height="26" viewBox="0 0 26 26" fill="none" xmlns="http://www.w3.org/2000/svg">
<path fill-rule="evenodd" clip-rule="evenodd" d="M16.4503 12.1667C17.8336 12.1667 18.9419 11.05 18.9419 9.66667C18.9419 8.28333 17.8336 7.16667 16.4503 7.16667C15.0669 7.16667 13.9503 8.28333 13.9503 9.66667C13.9503 11.05 15.0669 12.1667 16.4503 12.1667ZM9.78359 12.1667C11.1669 12.1667 12.2753 11.05 12.2753 9.66667C12.2753 8.28333 11.1669 7.16667 9.78359 7.16667C8.40026 7.16667 7.28359 8.28333 7.28359 9.66667C7.28359 11.05 8.40026 12.1667 9.78359 12.1667ZM9.78359 13.8333C7.84192 13.8333 3.95026 14.8083 3.95026 16.75V18C3.95026 18.4583 4.32526 18.8333 4.78359 18.8333H14.7836C15.2419 18.8333 15.6169 18.4583 15.6169 18V16.75C15.6169 14.8083 11.7253 13.8333 9.78359 13.8333ZM16.4503 13.8333C16.2086 13.8333 15.9336 13.85 15.6419 13.875C15.6586 13.8833 15.6669 13.9 15.6753 13.9083C16.6253 14.6 17.2836 15.525 17.2836 16.75V18C17.2836 18.2917 17.2253 18.575 17.1336 18.8333H21.4503C21.9086 18.8333 22.2836 18.4583 22.2836 18V16.75C22.2836 14.8083 18.3919 13.8333 16.4503 13.8333Z" fill="#C3CAD9"/>
</svg>
