<svg width="31" height="31" viewBox="0 0 31 31" fill="none" xmlns="http://www.w3.org/2000/svg">
<rect x="0.616943" y="0.5" width="30" height="30" rx="15" fill="#29CC39"/>
<path d="M18.1169 18.2305V19.5H13.156V18.4258L15.4412 16.0234C15.643 15.7923 15.8057 15.5856 15.9294 15.4033C16.0531 15.2178 16.1427 15.0501 16.198 14.9004C16.2566 14.7507 16.2859 14.6156 16.2859 14.4951C16.2859 14.29 16.255 14.1191 16.1931 13.9824C16.1345 13.8424 16.0466 13.7367 15.9294 13.665C15.8155 13.5934 15.6739 13.5576 15.5046 13.5576C15.3354 13.5576 15.1873 13.6064 15.0603 13.7041C14.9333 13.8018 14.8341 13.9352 14.7625 14.1045C14.6941 14.2738 14.6599 14.4642 14.6599 14.6758H13.0095C13.0095 14.2396 13.1153 13.8408 13.3269 13.4795C13.5417 13.1182 13.8396 12.8301 14.2205 12.6152C14.6013 12.3971 15.0424 12.2881 15.5437 12.2881C16.0678 12.2881 16.5072 12.3695 16.8621 12.5322C17.2169 12.695 17.4838 12.931 17.6628 13.2402C17.8451 13.5462 17.9363 13.9157 17.9363 14.3486C17.9363 14.596 17.8972 14.8337 17.8191 15.0615C17.741 15.2894 17.6287 15.5156 17.4822 15.7402C17.3357 15.9616 17.1567 16.1895 16.9451 16.4238C16.7367 16.6582 16.4991 16.9072 16.2322 17.1709L15.3142 18.2305H18.1169Z" fill="white"/>
</svg>
