<svg width="31" height="31" viewBox="0 0 31 31" fill="none" xmlns="http://www.w3.org/2000/svg">
<rect x="0.616943" y="0.5" width="30" height="30" rx="15" fill="#8833FF"/>
<path d="M14.655 15.2568H15.4558C15.6609 15.2568 15.8285 15.221 15.9587 15.1494C16.0922 15.0745 16.1915 14.9704 16.2566 14.8369C16.3217 14.7002 16.3542 14.5391 16.3542 14.3535C16.3542 14.2103 16.3233 14.0785 16.2615 13.958C16.2029 13.8376 16.1117 13.7415 15.988 13.6699C15.8643 13.5951 15.7065 13.5576 15.5144 13.5576C15.3842 13.5576 15.2572 13.5853 15.1335 13.6406C15.0098 13.6927 14.9073 13.7676 14.8259 13.8652C14.7478 13.9629 14.7087 14.0817 14.7087 14.2217H13.0583C13.0583 13.818 13.169 13.473 13.3904 13.1865C13.615 12.8968 13.9096 12.6755 14.2742 12.5225C14.642 12.3662 15.0375 12.2881 15.4607 12.2881C15.9653 12.2881 16.408 12.3662 16.7888 12.5225C17.1697 12.6755 17.4659 12.9033 17.6775 13.2061C17.8923 13.5055 17.9998 13.8766 17.9998 14.3193C17.9998 14.5635 17.9428 14.793 17.8289 15.0078C17.7149 15.2227 17.5554 15.4115 17.3503 15.5742C17.1453 15.737 16.9044 15.8656 16.6277 15.96C16.3542 16.0511 16.0548 16.0967 15.7292 16.0967H14.655V15.2568ZM14.655 16.4824V15.6621H15.7292C16.0841 15.6621 16.408 15.7028 16.7009 15.7842C16.9939 15.8623 17.2462 15.9795 17.4578 16.1357C17.6694 16.292 17.8321 16.4857 17.946 16.7168C18.06 16.9447 18.1169 17.2067 18.1169 17.5029C18.1169 17.835 18.0502 18.1312 17.9167 18.3916C17.7833 18.652 17.5961 18.8717 17.3552 19.0508C17.1143 19.2298 16.8328 19.3665 16.5105 19.4609C16.1882 19.5521 15.8383 19.5977 15.4607 19.5977C15.1645 19.5977 14.8682 19.5586 14.572 19.4805C14.2758 19.3991 14.0056 19.2754 13.7615 19.1094C13.5173 18.9401 13.3204 18.7253 13.1707 18.4648C13.0242 18.2012 12.9509 17.887 12.9509 17.5225H14.6013C14.6013 17.6722 14.642 17.8089 14.7234 17.9326C14.808 18.0531 14.9203 18.1491 15.0603 18.2207C15.2003 18.2923 15.3516 18.3281 15.5144 18.3281C15.7162 18.3281 15.8871 18.2907 16.0271 18.2158C16.1703 18.1377 16.2794 18.0335 16.3542 17.9033C16.4291 17.7731 16.4666 17.6283 16.4666 17.4688C16.4666 17.2279 16.4259 17.0358 16.3445 16.8926C16.2664 16.7493 16.1508 16.6452 15.9978 16.5801C15.8481 16.515 15.6674 16.4824 15.4558 16.4824H14.655Z" fill="white"/>
</svg>
