<svg width="51" height="51" viewBox="0 0 51 51" fill="none" xmlns="http://www.w3.org/2000/svg">
<g filter="url(#filter0_d_1_10178)">
<rect x="5.61694" y="3.5" width="40" height="40" rx="20" fill="white"/>
<path fill-rule="evenodd" clip-rule="evenodd" d="M31.7606 22.1863H21.3353L25.8899 17.6316C26.2539 17.2676 26.2539 16.6703 25.8899 16.3063C25.7156 16.1315 25.4788 16.0333 25.2319 16.0333C24.9851 16.0333 24.7483 16.1315 24.5739 16.3063L18.4233 22.457C18.0593 22.821 18.0593 23.409 18.4233 23.773L24.5739 29.9236C24.9379 30.2876 25.5259 30.2876 25.8899 29.9236C26.2539 29.5596 26.2539 28.9716 25.8899 28.6076L21.3353 24.053H31.7606C32.2739 24.053 32.6939 23.633 32.6939 23.1196C32.6939 22.6063 32.2739 22.1863 31.7606 22.1863Z" fill="#C3CAD9"/>
</g>
<defs>
<filter id="filter0_d_1_10178" x="0.616943" y="0.5" width="50" height="50" filterUnits="userSpaceOnUse" color-interpolation-filters="sRGB">
<feFlood flood-opacity="0" result="BackgroundImageFix"/>
<feColorMatrix in="SourceAlpha" type="matrix" values="0 0 0 0 0 0 0 0 0 0 0 0 0 0 0 0 0 0 127 0" result="hardAlpha"/>
<feOffset dy="2"/>
<feGaussianBlur stdDeviation="2.5"/>
<feColorMatrix type="matrix" values="0 0 0 0 0.14902 0 0 0 0 0.2 0 0 0 0 0.301961 0 0 0 0.03 0"/>
<feBlend mode="normal" in2="BackgroundImageFix" result="effect1_dropShadow_1_10178"/>
<feBlend mode="normal" in="SourceGraphic" in2="effect1_dropShadow_1_10178" result="shape"/>
</filter>
</defs>
</svg>
