<svg width="31" height="31" viewBox="0 0 31 31" fill="none" xmlns="http://www.w3.org/2000/svg">
<path fill-rule="evenodd" clip-rule="evenodd" d="M7.61694 21.5H11.6169C12.1669 21.5 12.6169 21.05 12.6169 20.5C12.6169 19.95 12.1669 19.5 11.6169 19.5H7.61694C7.06694 19.5 6.61694 19.95 6.61694 20.5C6.61694 21.05 7.06694 21.5 7.61694 21.5ZM6.61694 10.5C6.61694 11.05 7.06694 11.5 7.61694 11.5H23.6169C24.1669 11.5 24.6169 11.05 24.6169 10.5C24.6169 9.95 24.1669 9.5 23.6169 9.5H7.61694C7.06694 9.5 6.61694 9.95 6.61694 10.5ZM7.61694 16.5H17.6169C18.1669 16.5 18.6169 16.05 18.6169 15.5C18.6169 14.95 18.1669 14.5 17.6169 14.5H7.61694C7.06694 14.5 6.61694 14.95 6.61694 15.5C6.61694 16.05 7.06694 16.5 7.61694 16.5Z" fill="#C3CAD9"/>
</svg>
