<svg width="31" height="31" viewBox="0 0 31 31" fill="none" xmlns="http://www.w3.org/2000/svg">
<path fill-rule="evenodd" clip-rule="evenodd" d="M22.9669 13.54C22.2869 10.09 19.2569 7.5 15.6169 7.5C12.7269 7.5 10.2169 9.14 8.96694 11.54C5.95694 11.86 3.61694 14.41 3.61694 17.5C3.61694 20.81 6.30694 23.5 9.61694 23.5H22.6169C25.3769 23.5 27.6169 21.26 27.6169 18.5C27.6169 15.86 25.5669 13.72 22.9669 13.54ZM14.3269 19.79C13.9369 20.18 13.3069 20.18 12.9169 19.79L10.8169 17.7C10.6297 17.5132 10.5245 17.2595 10.5245 16.995C10.5245 16.7305 10.6297 16.4768 10.8169 16.29C11.2069 15.9 11.8369 15.9 12.2269 16.29L13.6169 17.68L18.0969 13.2C18.4869 12.81 19.1169 12.81 19.5069 13.2C19.8969 13.59 19.8969 14.22 19.5069 14.61L14.3269 19.79Z" fill="#C3CAD9"/>
</svg>
