<svg width="51" height="51" viewBox="0 0 51 51" fill="none" xmlns="http://www.w3.org/2000/svg">
<rect x="0.616943" y="0.5" width="50" height="50" rx="25" fill="#8833FF" fill-opacity="0.1"/>
<path fill-rule="evenodd" clip-rule="evenodd" d="M25.2034 35C26.3034 35 27.2034 34.1 27.2034 33H23.2034C23.2034 34.1 24.0934 35 25.2034 35ZM31.2034 29V24C31.2034 20.93 29.5634 18.36 26.7034 17.68V17C26.7034 16.17 26.0334 15.5 25.2034 15.5C24.3734 15.5 23.7034 16.17 23.7034 17V17.68C20.8334 18.36 19.2034 20.92 19.2034 24V29L17.9134 30.29C17.2834 30.92 17.7234 32 18.6134 32H31.7834C32.6734 32 33.1234 30.92 32.4934 30.29L31.2034 29Z" fill="#8833FF"/>
</svg>
