<svg width="31" height="31" viewBox="0 0 31 31" fill="none" xmlns="http://www.w3.org/2000/svg">
<path fill-rule="evenodd" clip-rule="evenodd" d="M23.6169 5.5H7.61694C6.51694 5.5 5.62694 6.4 5.62694 7.5L5.61694 25.5L9.61694 21.5H23.6169C24.7169 21.5 25.6169 20.6 25.6169 19.5V7.5C25.6169 6.4 24.7169 5.5 23.6169 5.5ZM20.6169 17.5H10.6169C10.0669 17.5 9.61694 17.05 9.61694 16.5C9.61694 15.95 10.0669 15.5 10.6169 15.5H20.6169C21.1669 15.5 21.6169 15.95 21.6169 16.5C21.6169 17.05 21.1669 17.5 20.6169 17.5ZM20.6169 14.5H10.6169C10.0669 14.5 9.61694 14.05 9.61694 13.5C9.61694 12.95 10.0669 12.5 10.6169 12.5H20.6169C21.1669 12.5 21.6169 12.95 21.6169 13.5C21.6169 14.05 21.1669 14.5 20.6169 14.5ZM20.6169 11.5H10.6169C10.0669 11.5 9.61694 11.05 9.61694 10.5C9.61694 9.95 10.0669 9.5 10.6169 9.5H20.6169C21.1669 9.5 21.6169 9.95 21.6169 10.5C21.6169 11.05 21.1669 11.5 20.6169 11.5Z" fill="#C3CAD9"/>
</svg>
