<svg width="31" height="31" viewBox="0 0 31 31" fill="none" xmlns="http://www.w3.org/2000/svg">
<path fill-rule="evenodd" clip-rule="evenodd" d="M19.1176 17.5006H18.3276L18.0476 17.2306C19.2476 15.8306 19.8676 13.9206 19.5276 11.8906C19.0576 9.11063 16.7376 6.89063 13.9376 6.55063C9.70757 6.03063 6.14757 9.59063 6.66757 13.8206C7.00757 16.6206 9.22757 18.9406 12.0076 19.4106C14.0376 19.7506 15.9476 19.1306 17.3476 17.9306L17.6176 18.2106V19.0006L21.8676 23.2506C22.2776 23.6606 22.9476 23.6606 23.3576 23.2506C23.7676 22.8406 23.7676 22.1706 23.3576 21.7606L19.1176 17.5006ZM13.1176 17.5006C10.6276 17.5006 8.61757 15.4906 8.61757 13.0006C8.61757 10.5106 10.6276 8.50063 13.1176 8.50063C15.6076 8.50063 17.6176 10.5106 17.6176 13.0006C17.6176 15.4906 15.6076 17.5006 13.1176 17.5006Z" fill="#C3CAD9"/>
</svg>
