<svg width="31" height="31" viewBox="0 0 31 31" fill="none" xmlns="http://www.w3.org/2000/svg">
<path fill-rule="evenodd" clip-rule="evenodd" d="M22.6169 6.5H8.61694C7.51694 6.5 6.61694 7.4 6.61694 8.5V22.5C6.61694 23.6 7.51694 24.5 8.61694 24.5H22.6169C23.7169 24.5 24.6169 23.6 24.6169 22.5V8.5C24.6169 7.4 23.7169 6.5 22.6169 6.5ZM11.6169 20.5C11.0669 20.5 10.6169 20.05 10.6169 19.5V14.5C10.6169 13.95 11.0669 13.5 11.6169 13.5C12.1669 13.5 12.6169 13.95 12.6169 14.5V19.5C12.6169 20.05 12.1669 20.5 11.6169 20.5ZM15.6169 20.5C15.0669 20.5 14.6169 20.05 14.6169 19.5V11.5C14.6169 10.95 15.0669 10.5 15.6169 10.5C16.1669 10.5 16.6169 10.95 16.6169 11.5V19.5C16.6169 20.05 16.1669 20.5 15.6169 20.5ZM19.6169 20.5C19.0669 20.5 18.6169 20.05 18.6169 19.5V17.5C18.6169 16.95 19.0669 16.5 19.6169 16.5C20.1669 16.5 20.6169 16.95 20.6169 17.5V19.5C20.6169 20.05 20.1669 20.5 19.6169 20.5Z" fill="#C3CAD9"/>
</svg>
