<svg width="31" height="31" viewBox="0 0 31 31" fill="none" xmlns="http://www.w3.org/2000/svg">
<path fill-rule="evenodd" clip-rule="evenodd" d="M19.6169 14.5C21.2769 14.5 22.6069 13.16 22.6069 11.5C22.6069 9.84 21.2769 8.5 19.6169 8.5C17.9569 8.5 16.6169 9.84 16.6169 11.5C16.6169 13.16 17.9569 14.5 19.6169 14.5ZM11.6169 14.5C13.2769 14.5 14.6069 13.16 14.6069 11.5C14.6069 9.84 13.2769 8.5 11.6169 8.5C9.95694 8.5 8.61694 9.84 8.61694 11.5C8.61694 13.16 9.95694 14.5 11.6169 14.5ZM11.6169 16.5C9.28694 16.5 4.61694 17.67 4.61694 20V21.5C4.61694 22.05 5.06694 22.5 5.61694 22.5H17.6169C18.1669 22.5 18.6169 22.05 18.6169 21.5V20C18.6169 17.67 13.9469 16.5 11.6169 16.5ZM19.6169 16.5C19.3269 16.5 18.9969 16.52 18.6469 16.55C18.6669 16.56 18.6769 16.58 18.6869 16.59C19.8269 17.42 20.6169 18.53 20.6169 20V21.5C20.6169 21.85 20.5469 22.19 20.4369 22.5H25.6169C26.1669 22.5 26.6169 22.05 26.6169 21.5V20C26.6169 17.67 21.9469 16.5 19.6169 16.5Z" fill="#C3CAD9"/>
</svg>
