<svg width="31" height="31" viewBox="0 0 31 31" fill="none" xmlns="http://www.w3.org/2000/svg">
<rect x="0.616943" y="0.5" width="30" height="30" rx="15" fill="#FF6633"/>
<path d="M18.6169 17.9766V19.5H12.6638V18.2109L15.406 15.3281C15.6482 15.0508 15.8435 14.8027 15.9919 14.584C16.1404 14.3613 16.2478 14.1602 16.3142 13.9805C16.3845 13.8008 16.4197 13.6387 16.4197 13.4941C16.4197 13.248 16.3826 13.043 16.3083 12.8789C16.238 12.7109 16.1326 12.584 15.9919 12.498C15.8552 12.4121 15.6853 12.3691 15.4822 12.3691C15.2791 12.3691 15.1013 12.4277 14.949 12.5449C14.7966 12.6621 14.6775 12.8223 14.5916 13.0254C14.5095 13.2285 14.4685 13.457 14.4685 13.7109H12.488C12.488 13.1875 12.615 12.709 12.8689 12.2754C13.1267 11.8418 13.4841 11.4961 13.9412 11.2383C14.3982 10.9766 14.9275 10.8457 15.5291 10.8457C16.158 10.8457 16.6853 10.9434 17.1111 11.1387C17.5369 11.334 17.8572 11.6172 18.072 11.9883C18.2908 12.3555 18.4001 12.7988 18.4001 13.3184C18.4001 13.6152 18.3533 13.9004 18.2595 14.1738C18.1658 14.4473 18.031 14.7188 17.8552 14.9883C17.6794 15.2539 17.4646 15.5273 17.2107 15.8086C16.9607 16.0898 16.6755 16.3887 16.3552 16.7051L15.2537 17.9766H18.6169Z" fill="white"/>
</svg>
