<svg width="31" height="31" viewBox="0 0 31 31" fill="none" xmlns="http://www.w3.org/2000/svg">
<path fill-rule="evenodd" clip-rule="evenodd" d="M22.6169 7.5H18.4369C18.0169 6.34 16.9169 5.5 15.6169 5.5C14.3169 5.5 13.2169 6.34 12.7969 7.5H8.61694C7.51694 7.5 6.61694 8.4 6.61694 9.5V23.5C6.61694 24.6 7.51694 25.5 8.61694 25.5H22.6169C23.7169 25.5 24.6169 24.6 24.6169 23.5V9.5C24.6169 8.4 23.7169 7.5 22.6169 7.5ZM15.6169 7.5C16.1669 7.5 16.6169 7.95 16.6169 8.5C16.6169 9.05 16.1669 9.5 15.6169 9.5C15.0669 9.5 14.6169 9.05 14.6169 8.5C14.6169 7.95 15.0669 7.5 15.6169 7.5ZM16.6169 21.5H11.6169C11.0669 21.5 10.6169 21.05 10.6169 20.5C10.6169 19.95 11.0669 19.5 11.6169 19.5H16.6169C17.1669 19.5 17.6169 19.95 17.6169 20.5C17.6169 21.05 17.1669 21.5 16.6169 21.5ZM19.6169 17.5H11.6169C11.0669 17.5 10.6169 17.05 10.6169 16.5C10.6169 15.95 11.0669 15.5 11.6169 15.5H19.6169C20.1669 15.5 20.6169 15.95 20.6169 16.5C20.6169 17.05 20.1669 17.5 19.6169 17.5ZM19.6169 13.5H11.6169C11.0669 13.5 10.6169 13.05 10.6169 12.5C10.6169 11.95 11.0669 11.5 11.6169 11.5H19.6169C20.1669 11.5 20.6169 11.95 20.6169 12.5C20.6169 13.05 20.1669 13.5 19.6169 13.5Z" fill="#33BFFF"/>
</svg>
