<svg width="43" height="77" viewBox="0 0 43 77" fill="none" xmlns="http://www.w3.org/2000/svg">
<path d="M12.9802 63.3926H10.3669V70.5H8.60913V63.3926H6.03101V61.9688H12.9802V63.3926ZM16.5662 70.5C16.488 70.3477 16.4314 70.1582 16.3962 69.9316C15.9861 70.3887 15.4529 70.6172 14.7966 70.6172C14.1755 70.6172 13.6599 70.4375 13.2498 70.0781C12.8435 69.7188 12.6404 69.2656 12.6404 68.7188C12.6404 68.0469 12.8884 67.5312 13.3845 67.1719C13.8845 66.8125 14.6052 66.6309 15.5466 66.627H16.3259V66.2637C16.3259 65.9707 16.2498 65.7363 16.0974 65.5605C15.949 65.3848 15.7126 65.2969 15.3884 65.2969C15.1033 65.2969 14.8787 65.3652 14.7146 65.502C14.5544 65.6387 14.4744 65.8262 14.4744 66.0645H12.781C12.781 65.6973 12.8943 65.3574 13.1208 65.0449C13.3474 64.7324 13.6677 64.4883 14.0818 64.3125C14.4958 64.1328 14.9607 64.043 15.4763 64.043C16.2576 64.043 16.8767 64.2402 17.3337 64.6348C17.7947 65.0254 18.0251 65.5762 18.0251 66.2871V69.0352C18.0291 69.6367 18.113 70.0918 18.2771 70.4004V70.5H16.5662ZM15.1658 69.3223C15.4158 69.3223 15.6462 69.2676 15.8572 69.1582C16.0681 69.0449 16.2244 68.8945 16.3259 68.707V67.6172H15.6931C14.8455 67.6172 14.3943 67.9102 14.3396 68.4961L14.3337 68.5957C14.3337 68.8066 14.408 68.9805 14.5564 69.1172C14.7048 69.2539 14.908 69.3223 15.1658 69.3223ZM22.7595 68.748C22.7595 68.541 22.656 68.3789 22.449 68.2617C22.2458 68.1406 21.9177 68.0332 21.4646 67.9395C19.9568 67.623 19.2029 66.9824 19.2029 66.0176C19.2029 65.4551 19.4353 64.9863 19.9001 64.6113C20.3689 64.2324 20.9802 64.043 21.7341 64.043C22.5388 64.043 23.1814 64.2324 23.6619 64.6113C24.1462 64.9902 24.3884 65.4824 24.3884 66.0879H22.6951C22.6951 65.8457 22.6169 65.6465 22.4607 65.4902C22.3044 65.3301 22.0603 65.25 21.7283 65.25C21.4431 65.25 21.2224 65.3145 21.0662 65.4434C20.9099 65.5723 20.8318 65.7363 20.8318 65.9355C20.8318 66.123 20.9197 66.2754 21.0955 66.3926C21.2751 66.5059 21.5759 66.6055 21.9978 66.6914C22.4197 66.7734 22.7751 66.8672 23.0642 66.9727C23.9587 67.3008 24.406 67.8691 24.406 68.6777C24.406 69.2559 24.158 69.7246 23.6619 70.084C23.1658 70.4395 22.5251 70.6172 21.74 70.6172C21.2087 70.6172 20.7361 70.5234 20.322 70.3359C19.9119 70.1445 19.5896 69.8848 19.3552 69.5566C19.1208 69.2246 19.0037 68.8672 19.0037 68.4844H20.6091C20.6248 68.7852 20.7361 69.0156 20.9431 69.1758C21.1501 69.3359 21.4275 69.416 21.7751 69.416C22.0994 69.416 22.3435 69.3555 22.5076 69.2344C22.6755 69.1094 22.7595 68.9473 22.7595 68.748ZM27.8044 67.957L27.1951 68.5664V70.5H25.5017V61.5H27.1951V66.4863L27.5232 66.0645L29.1462 64.1602H31.1794L28.8884 66.8027L31.3787 70.5H29.4333L27.8044 67.957ZM35.3455 68.748C35.3455 68.541 35.2419 68.3789 35.0349 68.2617C34.8318 68.1406 34.5037 68.0332 34.0505 67.9395C32.5427 67.623 31.7888 66.9824 31.7888 66.0176C31.7888 65.4551 32.0212 64.9863 32.4861 64.6113C32.9548 64.2324 33.5662 64.043 34.3201 64.043C35.1248 64.043 35.7673 64.2324 36.2478 64.6113C36.7322 64.9902 36.9744 65.4824 36.9744 66.0879H35.281C35.281 65.8457 35.2029 65.6465 35.0466 65.4902C34.8904 65.3301 34.6462 65.25 34.3142 65.25C34.0291 65.25 33.8083 65.3145 33.6521 65.4434C33.4958 65.5723 33.4177 65.7363 33.4177 65.9355C33.4177 66.123 33.5056 66.2754 33.6814 66.3926C33.8611 66.5059 34.1619 66.6055 34.5837 66.6914C35.0056 66.7734 35.3611 66.8672 35.6501 66.9727C36.5447 67.3008 36.9919 67.8691 36.9919 68.6777C36.9919 69.2559 36.7439 69.7246 36.2478 70.084C35.7517 70.4395 35.1111 70.6172 34.3259 70.6172C33.7947 70.6172 33.322 70.5234 32.908 70.3359C32.4978 70.1445 32.1755 69.8848 31.9412 69.5566C31.7068 69.2246 31.5896 68.8672 31.5896 68.4844H33.1951C33.2107 68.7852 33.322 69.0156 33.5291 69.1758C33.7361 69.3359 34.0134 69.416 34.3611 69.416C34.6853 69.416 34.9294 69.3555 35.0935 69.2344C35.2615 69.1094 35.3455 68.9473 35.3455 68.748Z" fill="#6B7A99"/>
<rect x="1.61694" y="1.5" width="40" height="40" rx="20" fill="#8833FF"/>
<path d="M19.5118 24.0352H19.629C20.0197 24.0352 20.3712 23.9922 20.6837 23.9062C20.9962 23.8203 21.2638 23.6875 21.4865 23.5078C21.7091 23.3242 21.879 23.0879 21.9962 22.7988C22.1173 22.5059 22.1779 22.1523 22.1779 21.7383V19.9746C22.1779 19.7012 22.1544 19.4648 22.1075 19.2656C22.0607 19.0625 21.9923 18.8945 21.9025 18.7617C21.8126 18.6289 21.7052 18.5312 21.5802 18.4688C21.4552 18.4023 21.3146 18.3691 21.1583 18.3691C21.0021 18.3691 20.8634 18.4141 20.7423 18.5039C20.6251 18.5898 20.5236 18.707 20.4376 18.8555C20.3556 19 20.2931 19.1641 20.2501 19.3477C20.2072 19.5273 20.1857 19.709 20.1857 19.8926C20.1857 20.0996 20.2072 20.293 20.2501 20.4727C20.297 20.6484 20.3634 20.8027 20.4493 20.9355C20.5392 21.0645 20.6505 21.166 20.7833 21.2402C20.92 21.3145 21.0782 21.3516 21.2579 21.3516C21.4376 21.3516 21.5919 21.3203 21.7208 21.2578C21.8536 21.1914 21.963 21.1055 22.049 21C22.1349 20.8906 22.1974 20.7734 22.2365 20.6484C22.2794 20.5234 22.299 20.4004 22.295 20.2793L22.8693 20.7305C22.8693 20.9805 22.8126 21.2266 22.6993 21.4688C22.5861 21.7109 22.4298 21.9316 22.2306 22.1309C22.0314 22.3262 21.8009 22.4824 21.5392 22.5996C21.2814 22.7168 21.0079 22.7754 20.7189 22.7754C20.3322 22.7754 19.9825 22.707 19.67 22.5703C19.3615 22.4336 19.0978 22.2383 18.879 21.9844C18.6603 21.7305 18.4923 21.4277 18.3751 21.0762C18.2618 20.7207 18.2052 20.3262 18.2052 19.8926C18.2052 19.4746 18.2775 19.082 18.422 18.7148C18.5665 18.3477 18.7716 18.0254 19.0372 17.748C19.3029 17.4668 19.6173 17.2461 19.9806 17.0859C20.3439 16.9258 20.7423 16.8457 21.1759 16.8457C21.5861 16.8457 21.9708 16.9238 22.3302 17.0801C22.6896 17.2324 23.006 17.457 23.2794 17.7539C23.5529 18.0508 23.7677 18.416 23.924 18.8496C24.0802 19.2832 24.1583 19.7793 24.1583 20.3379V21.0176C24.1583 21.623 24.0841 22.1699 23.9357 22.6582C23.7872 23.1465 23.5763 23.5762 23.3029 23.9473C23.0294 24.3145 22.7052 24.623 22.3302 24.873C21.9591 25.1191 21.547 25.3047 21.0939 25.4297C20.6447 25.5547 20.1681 25.6172 19.6642 25.6172H19.5118V24.0352Z" fill="white"/>
<rect x="1.61694" y="1.5" width="40" height="40" rx="20" stroke="#8833FF" stroke-width="2"/>
</svg>
