<svg width="47" height="77" viewBox="0 0 47 77" fill="none" xmlns="http://www.w3.org/2000/svg">
<path d="M22.4685 20.4082H23.4001C24.1384 20.4082 24.5076 20.0469 24.5076 19.3242C24.5076 19.043 24.4197 18.8145 24.2439 18.6387C24.0681 18.459 23.8201 18.3691 23.4998 18.3691C23.238 18.3691 23.0095 18.4453 22.8142 18.5977C22.6228 18.75 22.5271 18.9395 22.5271 19.166H20.5525C20.5525 18.7168 20.6775 18.3164 20.9275 17.9648C21.1775 17.6133 21.5232 17.3398 21.9646 17.1445C22.4099 16.9453 22.8982 16.8457 23.4294 16.8457C24.3787 16.8457 25.1248 17.0625 25.6677 17.4961C26.2107 17.9297 26.4822 18.5254 26.4822 19.2832C26.4822 19.6504 26.3689 19.998 26.1423 20.3262C25.9197 20.6504 25.5935 20.9141 25.1638 21.1172C25.6169 21.2812 25.9724 21.5312 26.2302 21.8672C26.488 22.1992 26.6169 22.6113 26.6169 23.1035C26.6169 23.8652 26.324 24.4746 25.738 24.9316C25.1521 25.3887 24.3826 25.6172 23.4294 25.6172C22.8708 25.6172 22.3513 25.5117 21.8708 25.3008C21.3943 25.0859 21.033 24.791 20.7869 24.416C20.5408 24.0371 20.4177 23.6074 20.4177 23.127H22.4041C22.4041 23.3887 22.5095 23.6152 22.7205 23.8066C22.9314 23.998 23.1912 24.0938 23.4998 24.0938C23.8474 24.0938 24.1248 23.998 24.3318 23.8066C24.5388 23.6113 24.6423 23.3633 24.6423 23.0625C24.6423 22.6328 24.5349 22.3281 24.3201 22.1484C24.1052 21.9688 23.8083 21.8789 23.4294 21.8789H22.4685V20.4082Z" fill="white"/>
<rect x="3.61694" y="1.5" width="40" height="40" rx="20" fill="#29CC39"/>
<path d="M22.0626 20.4082H23.0236C23.2697 20.4082 23.4708 20.3652 23.6271 20.2793C23.7872 20.1895 23.9064 20.0645 23.9845 19.9043C24.0626 19.7402 24.1017 19.5469 24.1017 19.3242C24.1017 19.1523 24.0646 18.9941 23.9904 18.8496C23.92 18.7051 23.8107 18.5898 23.6622 18.5039C23.5138 18.4141 23.3243 18.3691 23.0939 18.3691C22.9376 18.3691 22.7853 18.4023 22.6368 18.4688C22.4884 18.5312 22.3654 18.6211 22.2677 18.7383C22.174 18.8555 22.1271 18.998 22.1271 19.166H20.1466C20.1466 18.6816 20.2794 18.2676 20.545 17.9238C20.8146 17.5762 21.1681 17.3105 21.6056 17.127C22.047 16.9395 22.5216 16.8457 23.0294 16.8457C23.6349 16.8457 24.1661 16.9395 24.6232 17.127C25.0802 17.3105 25.4357 17.584 25.6896 17.9473C25.9474 18.3066 26.0763 18.752 26.0763 19.2832C26.0763 19.5762 26.0079 19.8516 25.8712 20.1094C25.7345 20.3672 25.5431 20.5938 25.297 20.7891C25.0509 20.9844 24.7618 21.1387 24.4298 21.252C24.1017 21.3613 23.7423 21.416 23.3517 21.416H22.0626V20.4082ZM22.0626 21.8789V20.8945H23.3517C23.7775 20.8945 24.1661 20.9434 24.5177 21.041C24.8693 21.1348 25.172 21.2754 25.4259 21.4629C25.6798 21.6504 25.8751 21.8828 26.0118 22.1602C26.1486 22.4336 26.2169 22.748 26.2169 23.1035C26.2169 23.502 26.1368 23.8574 25.9767 24.1699C25.8165 24.4824 25.5919 24.7461 25.3029 24.9609C25.0138 25.1758 24.6759 25.3398 24.2892 25.4531C23.9025 25.5625 23.4825 25.6172 23.0294 25.6172C22.674 25.6172 22.3185 25.5703 21.963 25.4766C21.6075 25.3789 21.2833 25.2305 20.9904 25.0312C20.6974 24.8281 20.4611 24.5703 20.2814 24.2578C20.1056 23.9414 20.0177 23.5645 20.0177 23.127H21.9982C21.9982 23.3066 22.047 23.4707 22.1447 23.6191C22.2462 23.7637 22.381 23.8789 22.549 23.9648C22.7169 24.0508 22.8986 24.0938 23.0939 24.0938C23.3361 24.0938 23.5411 24.0488 23.7091 23.959C23.881 23.8652 24.0118 23.7402 24.1017 23.584C24.1915 23.4277 24.2365 23.2539 24.2365 23.0625C24.2365 22.7734 24.1876 22.543 24.09 22.3711C23.9962 22.1992 23.8575 22.0742 23.674 21.9961C23.4943 21.918 23.2775 21.8789 23.0236 21.8789H22.0626Z" fill="white"/>
<rect x="3.61694" y="1.5" width="40" height="40" rx="20" stroke="#29CC39" stroke-width="2"/>
<path d="M3.73608 67.4941V70.5H1.97827V61.9688H5.3064C5.94702 61.9688 6.50952 62.0859 6.9939 62.3203C7.48218 62.5547 7.85718 62.8887 8.1189 63.3223C8.38062 63.752 8.51147 64.2422 8.51147 64.793C8.51147 65.6289 8.22437 66.2891 7.65015 66.7734C7.07983 67.2539 6.28882 67.4941 5.2771 67.4941H3.73608ZM3.73608 66.0703H5.3064C5.77124 66.0703 6.12476 65.9609 6.36694 65.7422C6.61304 65.5234 6.73608 65.2109 6.73608 64.8047C6.73608 64.3867 6.61304 64.0488 6.36694 63.791C6.12085 63.5332 5.78101 63.4004 5.34741 63.3926H3.73608V66.0703ZM13.1755 65.748C12.9451 65.7168 12.7419 65.7012 12.5662 65.7012C11.9255 65.7012 11.5056 65.918 11.3064 66.3516V70.5H9.61304V64.1602H11.2126L11.2595 64.916C11.5994 64.334 12.0701 64.043 12.6716 64.043C12.8591 64.043 13.0349 64.0684 13.199 64.1191L13.1755 65.748ZM13.5212 67.2715C13.5212 66.6426 13.6423 66.082 13.8845 65.5898C14.1267 65.0977 14.4744 64.7168 14.9275 64.4473C15.3845 64.1777 15.9138 64.043 16.5154 64.043C17.3708 64.043 18.0681 64.3047 18.6072 64.8281C19.1501 65.3516 19.4529 66.0625 19.5154 66.9609L19.5271 67.3945C19.5271 68.3672 19.2556 69.1484 18.7126 69.7383C18.1697 70.3242 17.4412 70.6172 16.5271 70.6172C15.613 70.6172 14.8826 70.3242 14.3357 69.7383C13.7927 69.1523 13.5212 68.3555 13.5212 67.3477V67.2715ZM15.2146 67.3945C15.2146 67.9961 15.3279 68.457 15.5544 68.7773C15.781 69.0938 16.1052 69.252 16.5271 69.252C16.9373 69.252 17.2576 69.0957 17.488 68.7832C17.7185 68.4668 17.8337 67.9629 17.8337 67.2715C17.8337 66.6816 17.7185 66.2246 17.488 65.9004C17.2576 65.5762 16.9333 65.4141 16.5154 65.4141C16.1013 65.4141 15.781 65.5762 15.5544 65.9004C15.3279 66.2207 15.2146 66.7188 15.2146 67.3945ZM22.363 64.1602V70.8457C22.363 71.5449 22.1775 72.0879 21.8064 72.4746C21.4353 72.8652 20.9001 73.0605 20.2009 73.0605C19.908 73.0605 19.6287 73.0273 19.363 72.9609V71.6191C19.5662 71.6543 19.7439 71.6719 19.8962 71.6719C20.408 71.6719 20.6638 71.4004 20.6638 70.8574V64.1602H22.363ZM20.5291 62.5195C20.5291 62.2656 20.613 62.0566 20.781 61.8926C20.9529 61.7285 21.1853 61.6465 21.4783 61.6465C21.7712 61.6465 22.0017 61.7285 22.1697 61.8926C22.3416 62.0566 22.4275 62.2656 22.4275 62.5195C22.4275 62.7773 22.3396 62.9883 22.1638 63.1523C21.9919 63.3164 21.7634 63.3984 21.4783 63.3984C21.1931 63.3984 20.9626 63.3164 20.7869 63.1523C20.615 62.9883 20.5291 62.7773 20.5291 62.5195ZM26.6052 70.6172C25.6755 70.6172 24.9177 70.332 24.3318 69.7617C23.7498 69.1914 23.4587 68.4316 23.4587 67.4824V67.3184C23.4587 66.6816 23.5818 66.1133 23.8279 65.6133C24.074 65.1094 24.4216 64.7227 24.8708 64.4531C25.324 64.1797 25.8396 64.043 26.4177 64.043C27.2849 64.043 27.9666 64.3164 28.4626 64.8633C28.9626 65.4102 29.2126 66.1855 29.2126 67.1895V67.8809H25.1755C25.2302 68.2949 25.3943 68.627 25.6677 68.877C25.9451 69.127 26.2947 69.252 26.7166 69.252C27.3689 69.252 27.8787 69.0156 28.2458 68.543L29.0779 69.4746C28.824 69.834 28.4802 70.1152 28.0466 70.3184C27.613 70.5176 27.1326 70.6172 26.6052 70.6172ZM26.4119 65.4141C26.0759 65.4141 25.8025 65.5273 25.5916 65.7539C25.3845 65.9805 25.2517 66.3047 25.1931 66.7266H27.5486V66.5918C27.5408 66.2168 27.4392 65.9277 27.2439 65.7246C27.0486 65.5176 26.7712 65.4141 26.4119 65.4141ZM32.8162 69.252C33.1287 69.252 33.3826 69.166 33.5779 68.9941C33.7732 68.8223 33.8748 68.5938 33.8826 68.3086H35.4705C35.4666 68.7383 35.3494 69.1328 35.1189 69.4922C34.8884 69.8477 34.572 70.125 34.1697 70.3242C33.7712 70.5195 33.3298 70.6172 32.8455 70.6172C31.9392 70.6172 31.2244 70.3301 30.7009 69.7559C30.1775 69.1777 29.9158 68.3809 29.9158 67.3652V67.2539C29.9158 66.2773 30.1755 65.498 30.6951 64.916C31.2146 64.334 31.9275 64.043 32.8337 64.043C33.6267 64.043 34.2615 64.2695 34.738 64.7227C35.2185 65.1719 35.4626 65.7715 35.4705 66.5215H33.8826C33.8748 66.1934 33.7732 65.9277 33.5779 65.7246C33.3826 65.5176 33.1248 65.4141 32.8044 65.4141C32.4099 65.4141 32.1111 65.5586 31.908 65.8477C31.7087 66.1328 31.6091 66.5977 31.6091 67.2422V67.418C31.6091 68.0703 31.7087 68.5391 31.908 68.8242C32.1072 69.1094 32.4099 69.252 32.8162 69.252ZM38.4646 62.6016V64.1602H39.5486V65.4023H38.4646V68.5664C38.4646 68.8008 38.5095 68.9688 38.5994 69.0703C38.6892 69.1719 38.8611 69.2227 39.115 69.2227C39.3025 69.2227 39.4685 69.209 39.613 69.1816V70.4648C39.281 70.5664 38.9392 70.6172 38.5876 70.6172C37.4001 70.6172 36.7947 70.0176 36.7712 68.8184V65.4023H35.8455V64.1602H36.7712V62.6016H38.4646ZM43.9255 68.748C43.9255 68.541 43.822 68.3789 43.615 68.2617C43.4119 68.1406 43.0837 68.0332 42.6306 67.9395C41.1228 67.623 40.3689 66.9824 40.3689 66.0176C40.3689 65.4551 40.6013 64.9863 41.0662 64.6113C41.5349 64.2324 42.1462 64.043 42.9001 64.043C43.7048 64.043 44.3474 64.2324 44.8279 64.6113C45.3123 64.9902 45.5544 65.4824 45.5544 66.0879H43.8611C43.8611 65.8457 43.783 65.6465 43.6267 65.4902C43.4705 65.3301 43.2263 65.25 42.8943 65.25C42.6091 65.25 42.3884 65.3145 42.2322 65.4434C42.0759 65.5723 41.9978 65.7363 41.9978 65.9355C41.9978 66.123 42.0857 66.2754 42.2615 66.3926C42.4412 66.5059 42.7419 66.6055 43.1638 66.6914C43.5857 66.7734 43.9412 66.8672 44.2302 66.9727C45.1248 67.3008 45.572 67.8691 45.572 68.6777C45.572 69.2559 45.324 69.7246 44.8279 70.084C44.3318 70.4395 43.6912 70.6172 42.906 70.6172C42.3748 70.6172 41.9021 70.5234 41.488 70.3359C41.0779 70.1445 40.7556 69.8848 40.5212 69.5566C40.2869 69.2246 40.1697 68.8672 40.1697 68.4844H41.7751C41.7908 68.7852 41.9021 69.0156 42.1091 69.1758C42.3162 69.3359 42.5935 69.416 42.9412 69.416C43.2654 69.416 43.5095 69.3555 43.6736 69.2344C43.8416 69.1094 43.9255 68.9473 43.9255 68.748Z" fill="#6B7A99"/>
</svg>
