<svg width="31" height="31" viewBox="0 0 31 31" fill="none" xmlns="http://www.w3.org/2000/svg">
<path fill-rule="evenodd" clip-rule="evenodd" d="M8.61694 16.0925H19.7869L14.9069 20.9725C14.5169 21.3625 14.5169 22.0025 14.9069 22.3925C15.2969 22.7825 15.9269 22.7825 16.3169 22.3925L22.9069 15.8025C23.2969 15.4125 23.2969 14.7825 22.9069 14.3925L16.3269 7.79249C16.1401 7.60523 15.8865 7.5 15.6219 7.5C15.3574 7.5 15.1038 7.60523 14.9169 7.79249C14.5269 8.18249 14.5269 8.81249 14.9169 9.20249L19.7869 14.0925H8.61694C8.06694 14.0925 7.61694 14.5425 7.61694 15.0925C7.61694 15.6425 8.06694 16.0925 8.61694 16.0925Z" fill="#FF6633"/>
</svg>
