<svg width="61" height="61" viewBox="0 0 61 61" fill="none" xmlns="http://www.w3.org/2000/svg">
<g filter="url(#filter0_d_1_10574)">
<rect x="5.61719" y="3.5" width="50" height="50" rx="25" fill="white"/>
<path fill-rule="evenodd" clip-rule="evenodd" d="M30.6172 18.5C25.0972 18.5 20.6172 22.98 20.6172 28.5C20.6172 34.02 25.0972 38.5 30.6172 38.5C36.1372 38.5 40.6172 34.02 40.6172 28.5C40.6172 22.98 36.1372 18.5 30.6172 18.5ZM30.6172 21.5C32.2772 21.5 33.6172 22.84 33.6172 24.5C33.6172 26.16 32.2772 27.5 30.6172 27.5C28.9572 27.5 27.6172 26.16 27.6172 24.5C27.6172 22.84 28.9572 21.5 30.6172 21.5ZM30.6172 35.7C28.1172 35.7 25.9072 34.42 24.6172 32.48C24.6472 30.49 28.6172 29.4 30.6172 29.4C32.6072 29.4 36.5872 30.49 36.6172 32.48C35.3272 34.42 33.1172 35.7 30.6172 35.7Z" fill="#C3CAD9"/>
</g>
<defs>
<filter id="filter0_d_1_10574" x="0.617188" y="0.5" width="60" height="60" filterUnits="userSpaceOnUse" color-interpolation-filters="sRGB">
<feFlood flood-opacity="0" result="BackgroundImageFix"/>
<feColorMatrix in="SourceAlpha" type="matrix" values="0 0 0 0 0 0 0 0 0 0 0 0 0 0 0 0 0 0 127 0" result="hardAlpha"/>
<feOffset dy="2"/>
<feGaussianBlur stdDeviation="2.5"/>
<feColorMatrix type="matrix" values="0 0 0 0 0.14902 0 0 0 0 0.2 0 0 0 0 0.301961 0 0 0 0.03 0"/>
<feBlend mode="normal" in2="BackgroundImageFix" result="effect1_dropShadow_1_10574"/>
<feBlend mode="normal" in="SourceGraphic" in2="effect1_dropShadow_1_10574" result="shape"/>
</filter>
</defs>
</svg>
